<svg viewBox="0 0 400 300" xmlns="http://www.w3.org/2000/svg">
                        <defs>
                            <linearGradient id="grad1" x1="0%" y1="0%" x2="100%" y2="100%">
                                <stop offset="0%" style="stop-color:#667eea;stop-opacity:1"/>
                                <stop offset="100%" style="stop-color:#764ba2;stop-opacity:1"/>
                            </linearGradient>
                            <linearGradient id="grad2" x1="0%" y1="0%" x2="100%" y2="100%">
                                <stop offset="0%" style="stop-color:#f093fb;stop-opacity:1"/>
                                <stop offset="100%" style="stop-color:#f5576c;stop-opacity:1"/>
                            </linearGradient>
                        </defs>
                        
                        <!-- Left Document -->
                        <rect x="40" y="60" width="130" height="180" rx="15" fill="url(#grad1)" opacity="0.9" class="animate-float"/>
                        <rect x="60" y="90" width="90" height="8" rx="4" fill="white" opacity="0.8"/>
                        <rect x="60" y="110" width="70" height="8" rx="4" fill="white" opacity="0.6"/>
                        <rect x="60" y="130" width="85" height="8" rx="4" fill="white" opacity="0.6"/>
                        <rect x="60" y="150" width="60" height="8" rx="4" fill="white" opacity="0.6"/>
                        <circle cx="105" cy="195" r="25" fill="white" opacity="0.3"/>
                        <path d="M95 195 L100 200 L115 185" stroke="white" stroke-width="3" fill="none" opacity="0.8"/>
                        
                        <!-- VS Circle -->
                        <circle cx="200" cy="150" r="30" fill="white" opacity="0.9"/>
                        <circle cx="200" cy="150" r="25" fill="#3b82f6"/>
                        <text x="200" y="160" font-family="Arial" font-size="20" font-weight="bold" fill="white" text-anchor="middle">VS</text>
                        
                        <!-- Right Document -->
                        <rect x="230" y="60" width="130" height="180" rx="15" fill="url(#grad2)" opacity="0.9" class="animate-float" style="animation-delay: 0.5s"/>
                        <rect x="250" y="90" width="90" height="8" rx="4" fill="white" opacity="0.8"/>
                        <rect x="250" y="110" width="75" height="8" rx="4" fill="white" opacity="0.6"/>
                        <rect x="250" y="130" width="80" height="8" rx="4" fill="white" opacity="0.6"/>
                        <rect x="250" y="150" width="65" height="8" rx="4" fill="white" opacity="0.6"/>
                        <circle cx="295" cy="195" r="25" fill="white" opacity="0.3"/>
                        <path d="M285 195 L290 200 L305 185" stroke="white" stroke-width="3" fill="none" opacity="0.8"/>
                    </svg>